<?xml version="1.0" standalone="no"?>
<!DOCTYPE svg PUBLIC "-//W3C//DTD SVG 20010904//EN"
 "http://www.w3.org/TR/2001/REC-SVG-20010904/DTD/svg10.dtd">
<svg version="1.0" xmlns="http://www.w3.org/2000/svg"
 width="931.000000pt" height="590.000000pt" viewBox="0 0 931.000000 590.000000"
 preserveAspectRatio="xMidYMid meet">

<g transform="translate(0.000000,590.000000) scale(0.100000,-0.100000)"
fill="#000000" stroke="none">
<path d="M0 2950 l0 -2950 4655 0 4655 0 0 2950 0 2950 -4655 0 -4655 0 0
-2950z m4488 333 c14 -31 26 -87 33 -158 6 -60 12 -111 14 -113 1 -2 32 5 68
14 l66 18 77 -30 77 -29 27 -113 27 -113 -71 -106 -71 -105 -114 6 c-141 9
-165 21 -175 92 -3 26 -6 161 -6 301 l0 254 -27 36 -27 35 34 29 c19 16 38 29
41 29 3 0 15 -21 27 -47z m1481 -39 l33 -55 -7 -132 -8 -132 48 65 c26 36 51
68 54 73 4 4 38 -2 74 -13 63 -19 69 -24 98 -73 l30 -52 -5 -172 c-7 -194 -2
-207 48 -125 16 26 31 49 33 51 4 6 53 -28 53 -37 0 -15 -102 -122 -115 -122
-8 0 -30 7 -48 16 l-34 16 -6 112 c-4 61 -7 142 -7 181 0 66 -2 71 -36 106
l-37 38 -73 -67 -74 -67 0 -132 0 -132 40 -12 c22 -7 40 -18 40 -26 0 -10 -23
-13 -100 -13 -80 0 -100 3 -100 14 0 8 8 17 18 20 18 6 19 27 26 311 l7 305
-33 30 c-27 25 -30 32 -18 39 8 5 24 17 35 25 11 8 22 16 25 16 3 0 20 -25 39
-56z m-3699 6 c0 -11 -9 -24 -19 -28 -18 -6 -14 -17 44 -139 35 -73 66 -133
68 -133 8 0 167 256 167 267 0 6 -13 13 -30 17 -18 3 -30 12 -30 21 0 13 19
15 115 15 94 0 115 -3 115 -15 0 -8 -17 -19 -40 -26 -37 -11 -49 -25 -155
-186 l-115 -174 0 -133 0 -134 30 -7 c31 -7 58 -39 41 -49 -5 -4 -55 -3 -110
0 -108 7 -128 20 -66 43 l35 12 0 127 0 126 -102 174 c-69 119 -111 180 -130
191 -49 28 -35 40 55 44 45 1 92 4 105 5 16 1 22 -3 22 -18z m1621 -12 c26
-17 27 -17 41 3 l14 22 27 -24 26 -24 -47 -58 -47 -58 -46 51 -46 51 -74 -12
c-65 -10 -79 -16 -116 -52 l-42 -40 29 -58 c16 -32 38 -60 47 -63 10 -3 70
-19 133 -35 104 -28 118 -34 148 -68 l33 -38 -7 -95 c-3 -52 -9 -99 -11 -103
-3 -5 -51 -30 -108 -57 l-103 -48 -92 26 -93 25 -19 -25 c-15 -22 -23 -25 -46
-18 -15 4 -26 13 -24 21 8 37 52 119 64 119 7 0 55 -14 107 -31 l93 -31 72 27
c39 15 75 31 80 35 6 6 -10 145 -19 158 -1 1 -71 16 -156 33 -85 17 -155 32
-157 34 -2 1 -16 49 -32 106 -33 117 -35 107 42 191 l43 47 120 9 c127 8 126
9 166 -20z m-1049 1 c14 -8 23 -8 31 0 7 7 63 11 152 11 l140 0 68 -61 c44
-40 66 -67 63 -78 -2 -9 -7 -46 -11 -84 -6 -65 -8 -69 -50 -101 l-44 -33 40
-39 39 -38 0 -93 c0 -111 11 -119 60 -43 18 28 35 50 39 50 4 0 20 -14 36 -30
l29 -31 -59 -54 c-48 -43 -67 -54 -95 -54 -19 -1 -40 3 -46 7 -6 4 -21 54 -34
112 -25 120 -33 135 -87 173 -36 25 -42 26 -98 17 -33 -5 -63 -10 -67 -10 -10
0 -10 -135 -2 -207 6 -47 9 -53 35 -58 16 -4 29 -13 29 -21 0 -8 0 -17 0 -21
0 -11 -203 -3 -214 7 -4 5 6 16 24 25 l33 17 -6 270 c-6 302 -6 303 -79 314
-31 5 -38 11 -38 29 0 12 3 25 7 28 10 11 82 8 105 -4z m2762 -120 l7 -61 70
6 69 7 0 -42 0 -42 -70 7 -70 7 0 -174 c0 -170 0 -174 24 -196 22 -21 28 -22
82 -12 32 6 59 11 61 11 2 0 3 -13 3 -29 0 -28 -2 -29 -82 -44 l-83 -15 -42
41 -43 41 0 183 0 183 -45 -7 c-43 -5 -45 -5 -45 19 0 20 7 27 41 37 l41 12
-4 65 -3 64 41 0 41 0 7 -61z m1496 -96 c0 -11 6 -13 23 -9 82 26 129 36 137
31 5 -3 22 -23 39 -44 l31 -39 -31 -23 -32 -22 -19 23 c-10 13 -22 29 -26 37
-6 11 -15 11 -42 2 -67 -22 -70 -32 -70 -214 l0 -163 31 -11 c21 -7 30 -16 27
-28 -3 -16 -15 -18 -93 -18 -75 0 -90 3 -93 16 -2 11 6 19 23 23 l26 7 -3 203
c-3 199 -4 204 -26 223 l-23 18 21 27 21 28 40 -27 c21 -14 39 -32 39 -40z
m-1803 5 l52 -53 20 -114 21 -114 -73 -113 -72 -114 -76 0 -75 0 -70 85 c-76
93 -81 109 -83 254 l-1 73 62 74 62 74 91 0 91 0 51 -52z m2362 28 c59 -24 59
-24 79 -4 17 17 22 18 41 7 11 -8 21 -17 21 -20 0 -3 -16 -27 -36 -53 -33 -43
-37 -46 -53 -32 -9 8 -55 24 -101 35 l-85 20 -29 -29 -30 -29 35 -51 c25 -37
43 -53 69 -59 19 -5 67 -18 105 -28 l70 -18 14 -78 c7 -42 11 -83 8 -91 -3 -7
-33 -31 -67 -51 l-62 -38 -90 20 c-87 20 -90 20 -101 2 -11 -18 -47 -26 -59
-13 -9 8 25 104 36 104 6 0 48 -9 94 -20 104 -25 111 -25 144 3 26 21 27 24
16 64 l-12 43 -107 35 c-59 20 -112 42 -117 48 -5 7 -20 35 -32 64 l-22 52 22
55 23 55 76 14 c42 8 79 15 84 16 4 1 34 -10 66 -23z m-863 -33 c40 -34 42
-39 56 -124 l15 -89 -31 -5 c-17 -3 -87 -14 -156 -26 -68 -11 -126 -22 -128
-24 -2 -2 7 -37 20 -77 l25 -73 61 -3 c41 -2 85 4 130 18 38 11 72 20 76 20 3
0 6 -18 6 -39 0 -35 -3 -40 -27 -45 -24 -5 -247 -36 -257 -36 -2 0 -31 42 -65
93 -61 92 -61 93 -60 162 1 39 4 98 8 133 l6 63 65 50 65 50 74 -7 c66 -5 80
-10 117 -41z"/>
<path d="M4599 2959 l-56 -20 -8 -145 c-4 -81 -3 -150 2 -154 9 -8 94 -30 117
-30 21 0 126 141 126 169 0 12 -5 54 -12 93 -10 65 -14 71 -42 83 -56 23 -71
23 -127 4z"/>
<path d="M2970 3181 c-35 -6 -35 -6 -32 -56 1 -27 5 -78 8 -111 l5 -61 46 -7
c25 -3 67 -6 92 -6 42 0 51 4 91 45 l44 45 -13 52 c-21 82 -23 84 -100 96 -74
13 -86 13 -141 3z"/>
<path d="M5074 2982 c-70 -91 -67 -79 -54 -188 l11 -99 51 -52 c47 -48 57 -53
95 -53 l43 0 46 93 c47 92 47 92 35 147 -22 110 -30 127 -69 154 -54 37 -128
36 -158 -2z"/>
<path d="M6608 2988 l-58 -20 0 -75 0 -75 28 5 c15 3 67 11 115 18 53 7 87 17
87 24 0 6 -5 37 -11 67 -17 82 -52 94 -161 56z"/>
</g>
</svg>
